# xmcd
#
# Track frame offsets:
#	150
#	15145
#	31140
#	46467
#	56980
#	64642
#	77532
#	82572
#	90502
#	97845
#	107537
#	120505
#	130640
#	138552
#
# Disc length: 2037 seconds
#
# Revision: 4
# Processed by: cddbd v1.4PL0 Copyright (c) Steve Scherf et al.
# Submitted via: audiograbber 1.82.02
#
DISCID=9607f30e
DTITLE=Billie Holiday - Greatest Hits
DYEAR=1900
DGENRE=
TTITLE0=Lover Come Back
TTITLE1=I cover the waterfront
TTITLE2=Strange Fruit
TTITLE3=Ain't nobody's business
TTITLE4=Why not take all of me
TTITLE5=My Man
TTITLE6=You're drivin' me crazy
TTITLE7=I love you Porgy
TTITLE8=Them There Eyes
TTITLE9=Crazy they call me
TTITLE10=Billie's Blues
TTITLE11=Detour ahead
TTITLE12=Miss Brown to you
TTITLE13=Lover Man
EXTD=
EXTT0=
EXTT1=
EXTT2=
EXTT3=
EXTT4=
EXTT5=
EXTT6=
EXTT7=
EXTT8=
EXTT9=
EXTT10=
EXTT11=
EXTT12=
EXTT13=
PLAYORDER=
